STARTFONT 2.1
FONT fgb-13
COMMENT
COMMENT GENERATED BY "../snftobdf 1.0"
COMMENT AUTHOR mleisher@nmsu.edu (Mark Leisher)
COMMENT DATE Wed Dec 19 17:00:12 1990
COMMENT
SIZE 10 75 75
FONTBOUNDINGBOX 10 13 0 -2
STARTPROPERTIES 10
COPYRIGHT "Public domain font.  Share and enjoy."
FAMILY_NAME "fgb-13.bdf"
POINT_SIZE 120
WEIGHT 244
RESOLUTION 103
X_HEIGHT 11
QUAD_WIDTH 10
DEFAULT_CHAR 0
FONT_ASCENT 11
FONT_DESCENT 2
ENDPROPERTIES
CHARS 123
STARTCHAR C001
ENCODING 1
SWIDTH 963 0
DWIDTH 10 0
BBX 10 13 0 -2
BITMAP
0000
1800
1800
1800
1800
1800
1800
7e00
3c00
1800
0000
0000
0000
ENDCHAR
STARTCHAR C002
ENCODING 2
SWIDTH 963 0
DWIDTH 10 0
BBX 10 13 0 -2
BITMAP
0000
0000
0000
0000
3300
7e00
cc00
cc00
cc00
7e00
3300
0000
0000
ENDCHAR
STARTCHAR C003
ENCODING 3
SWIDTH 963 0
DWIDTH 10 0
BBX 10 13 0 -2
BITMAP
0000
1e00
3300
3300
6300
7e00
6300
6300
6300
7e00
6000
6000
6000
ENDCHAR
STARTCHAR C004
ENCODING 4
SWIDTH 963 0
DWIDTH 10 0
BBX 10 13 0 -2
BITMAP
0000
0000
0000
0000
0000
1800
3c00
6600
c300
0000
0000
0000
0000
ENDCHAR
STARTCHAR C005
ENCODING 5
SWIDTH 963 0
DWIDTH 10 0
BBX 10 13 0 -2
BITMAP
0000
0000
0000
0000
ff00
0300
0300
0000
0000
0000
0000
0000
0000
ENDCHAR
STARTCHAR C006
ENCODING 6
SWIDTH 963 0
DWIDTH 10 0
BBX 10 13 0 -2
BITMAP
0000
0000
0000
0000
1e00
3000
6000
7e00
6000
3000
1e00
0000
0000
ENDCHAR
STARTCHAR C007
ENCODING 7
SWIDTH 963 0
DWIDTH 10 0
BBX 10 13 0 -2
BITMAP
0000
0000
0000
0000
ff00
6600
6600
6600
6600
6600
6600
0000
0000
ENDCHAR
STARTCHAR C010
ENCODING 8
SWIDTH 963 0
DWIDTH 10 0
BBX 10 13 0 -2
BITMAP
c000
6000
6000
3000
1800
1800
3c00
3600
6600
6300
c300
0000
0000
ENDCHAR
STARTCHAR C013
ENCODING 11
SWIDTH 963 0
DWIDTH 10 0
BBX 10 13 0 -2
BITMAP
0000
1800
3c00
7e00
1800
1800
1800
1800
1800
1800
0000
0000
0000
ENDCHAR
STARTCHAR C015
ENCODING 13
SWIDTH 963 0
DWIDTH 10 0
BBX 10 13 0 -2
BITMAP
0600
0c00
1800
3000
6000
c000
6000
3000
1800
0c00
0600
0000
0000
ENDCHAR
STARTCHAR C016
ENCODING 14
SWIDTH 963 0
DWIDTH 10 0
BBX 10 13 0 -2
BITMAP
0000
0000
0000
0000
7e00
db00
db00
db00
7e00
0000
0000
0000
0000
ENDCHAR
STARTCHAR C017
ENCODING 15
SWIDTH 963 0
DWIDTH 10 0
BBX 10 13 0 -2
BITMAP
7e00
e700
0300
0300
0300
7f00
e300
c300
c300
e700
7e00
0000
0000
ENDCHAR
STARTCHAR C020
ENCODING 16
SWIDTH 963 0
DWIDTH 10 0
BBX 10 13 0 -2
BITMAP
0000
0000
0000
7f00
e000
c000
c000
e000
7f00
0000
0000
0000
0000
ENDCHAR
STARTCHAR C021
ENCODING 17
SWIDTH 963 0
DWIDTH 10 0
BBX 10 13 0 -2
BITMAP
0000
0000
0000
fe00
0700
0300
0300
0700
fe00
0000
0000
0000
0000
ENDCHAR
STARTCHAR C022
ENCODING 18
SWIDTH 963 0
DWIDTH 10 0
BBX 10 13 0 -2
BITMAP
7e00
e700
c300
c300
c300
c300
c300
c300
c300
c300
c300
0000
0000
ENDCHAR
STARTCHAR C023
ENCODING 19
SWIDTH 963 0
DWIDTH 10 0
BBX 10 13 0 -2
BITMAP
c300
c300
c300
c300
c300
c300
c300
c300
c300
e700
7e00
0000
0000
ENDCHAR
STARTCHAR C024
ENCODING 20
SWIDTH 963 0
DWIDTH 10 0
BBX 10 13 0 -2
BITMAP
c300
c300
c300
7e00
6600
6600
3c00
3c00
3c00
1800
1800
0000
0000
ENDCHAR
STARTCHAR C025
ENCODING 21
SWIDTH 963 0
DWIDTH 10 0
BBX 10 13 0 -2
BITMAP
ff00
0300
0300
0300
0300
7f00
0300
0300
0300
0300
ff00
0000
0000
ENDCHAR
STARTCHAR C026
ENCODING 22
SWIDTH 963 0
DWIDTH 10 0
BBX 10 13 0 -2
BITMAP
0000
0000
0000
3c00
6600
ff00
db00
ff00
6600
3c00
0000
0000
0000
ENDCHAR
STARTCHAR C027
ENCODING 23
SWIDTH 963 0
DWIDTH 10 0
BBX 10 13 0 -2
BITMAP
0000
0000
0000
3600
6300
ff80
6300
3600
0000
0000
0000
0000
0000
ENDCHAR
STARTCHAR C030
ENCODING 24
SWIDTH 963 0
DWIDTH 10 0
BBX 10 13 0 -2
BITMAP
0000
0000
0000
0000
3000
6000
ff00
6000
3000
0000
0000
0000
0000
ENDCHAR
STARTCHAR C031
ENCODING 25
SWIDTH 963 0
DWIDTH 10 0
BBX 10 13 0 -2
BITMAP
0000
0000
0000
0000
0c00
0600
ff00
0600
0c00
0000
0000
0000
0000
ENDCHAR
STARTCHAR C032
ENCODING 26
SWIDTH 963 0
DWIDTH 10 0
BBX 10 13 0 -2
BITMAP
0000
0600
0600
0c00
ff00
1800
3000
ff00
6000
6000
c000
0000
0000
ENDCHAR
STARTCHAR C033
ENCODING 27
SWIDTH 867 0
DWIDTH 9 0
BBX 9 13 0 -2
BITMAP
0000
0000
0000
0000
9c00
7200
0000
0000
0000
0000
0000
0000
0000
ENDCHAR
STARTCHAR C034
ENCODING 28
SWIDTH 963 0
DWIDTH 10 0
BBX 10 13 0 -2
BITMAP
0600
0c00
1800
3000
6000
c000
6000
3000
1800
0c00
0600
0000
fe00
ENDCHAR
STARTCHAR C035
ENCODING 29
SWIDTH 963 0
DWIDTH 10 0
BBX 10 13 0 -2
BITMAP
6000
3000
1800
0c00
0600
0300
0600
0c00
1800
3000
6000
0000
7f00
ENDCHAR
STARTCHAR C036
ENCODING 30
SWIDTH 963 0
DWIDTH 10 0
BBX 10 13 0 -2
BITMAP
0000
0000
ff00
0000
0000
ff00
0000
0000
ff00
0000
0000
0000
0000
ENDCHAR
STARTCHAR C037
ENCODING 31
SWIDTH 963 0
DWIDTH 10 0
BBX 10 13 0 -2
BITMAP
0000
0000
0000
0000
0000
c300
6600
3c00
1800
0000
0000
0000
0000
ENDCHAR
STARTCHAR C040
ENCODING 32
SWIDTH 963 0
DWIDTH 10 0
BBX 10 13 0 -2
BITMAP
0000
0000
0000
0000
0000
0000
0000
0000
0000
0000
0000
0000
0000
ENDCHAR
STARTCHAR C041
ENCODING 33
SWIDTH 963 0
DWIDTH 10 0
BBX 10 13 0 -2
BITMAP
1800
1800
1800
1800
1800
1800
1800
0000
0000
1800
1800
0000
0000
ENDCHAR
STARTCHAR C042
ENCODING 34
SWIDTH 963 0
DWIDTH 10 0
BBX 10 13 0 -2
BITMAP
7700
7700
3600
3600
0000
0000
0000
0000
0000
0000
0000
0000
0000
ENDCHAR
STARTCHAR C043
ENCODING 35
SWIDTH 963 0
DWIDTH 10 0
BBX 10 13 0 -2
BITMAP
0000
0000
6600
6600
ff00
6600
6600
ff00
6600
6600
0000
0000
0000
ENDCHAR
STARTCHAR C044
ENCODING 36
SWIDTH 963 0
DWIDTH 10 0
BBX 10 13 0 -2
BITMAP
1800
7e00
ff00
d800
f800
7e00
1f00
1b00
ff00
7e00
1800
0000
0000
ENDCHAR
STARTCHAR C045
ENCODING 37
SWIDTH 963 0
DWIDTH 10 0
BBX 10 13 0 -2
BITMAP
7000
d800
db00
7600
0c00
1800
3000
6e00
db00
1b00
0e00
0000
0000
ENDCHAR
STARTCHAR C046
ENCODING 38
SWIDTH 963 0
DWIDTH 10 0
BBX 10 13 0 -2
BITMAP
3800
6c00
cc00
cc00
d800
7000
7000
d800
cf00
c600
7b00
0000
0000
ENDCHAR
STARTCHAR C047
ENCODING 39
SWIDTH 963 0
DWIDTH 10 0
BBX 10 13 0 -2
BITMAP
3800
3800
1800
1800
0000
0000
0000
0000
0000
0000
0000
0000
0000
ENDCHAR
STARTCHAR C050
ENCODING 40
SWIDTH 963 0
DWIDTH 10 0
BBX 10 13 0 -2
BITMAP
0c00
1800
3000
3000
3000
3000
3000
3000
3000
1800
0c00
0000
0000
ENDCHAR
STARTCHAR C051
ENCODING 41
SWIDTH 963 0
DWIDTH 10 0
BBX 10 13 0 -2
BITMAP
3000
1800
0c00
0c00
0c00
0c00
0c00
0c00
0c00
1800
3000
0000
0000
ENDCHAR
STARTCHAR C052
ENCODING 42
SWIDTH 963 0
DWIDTH 10 0
BBX 10 13 0 -2
BITMAP
0000
0000
db00
7e00
3c00
ff00
3c00
7e00
db00
0000
0000
0000
0000
ENDCHAR
STARTCHAR C053
ENCODING 43
SWIDTH 963 0
DWIDTH 10 0
BBX 10 13 0 -2
BITMAP
0000
0000
1800
1800
1800
ff00
1800
1800
1800
0000
0000
0000
0000
ENDCHAR
STARTCHAR C054
ENCODING 44
SWIDTH 963 0
DWIDTH 10 0
BBX 10 13 0 -2
BITMAP
0000
0000
0000
0000
0000
0000
0000
1c00
1c00
1800
3000
0000
0000
ENDCHAR
STARTCHAR C055
ENCODING 45
SWIDTH 963 0
DWIDTH 10 0
BBX 10 13 0 -2
BITMAP
0000
0000
0000
0000
0000
ff00
0000
0000
0000
0000
0000
0000
0000
ENDCHAR
STARTCHAR C056
ENCODING 46
SWIDTH 963 0
DWIDTH 10 0
BBX 10 13 0 -2
BITMAP
0000
0000
0000
0000
0000
0000
0000
0000
3800
3800
0000
0000
0000
ENDCHAR
STARTCHAR C057
ENCODING 47
SWIDTH 963 0
DWIDTH 10 0
BBX 10 13 0 -2
BITMAP
0300
0300
0600
0600
0c00
0c00
1800
1800
3000
3000
6000
6000
0000
ENDCHAR
STARTCHAR C060
ENCODING 48
SWIDTH 963 0
DWIDTH 10 0
BBX 10 13 0 -2
BITMAP
3c00
6600
c300
c700
cf00
db00
f300
e300
c300
6600
3c00
0000
0000
ENDCHAR
STARTCHAR C061
ENCODING 49
SWIDTH 963 0
DWIDTH 10 0
BBX 10 13 0 -2
BITMAP
1800
3800
7800
1800
1800
1800
1800
1800
1800
1800
7e00
0000
0000
ENDCHAR
STARTCHAR C062
ENCODING 50
SWIDTH 963 0
DWIDTH 10 0
BBX 10 13 0 -2
BITMAP
7e00
e700
8300
0600
0c00
1800
3000
6000
c000
c000
ff00
0000
0000
ENDCHAR
STARTCHAR C063
ENCODING 51
SWIDTH 963 0
DWIDTH 10 0
BBX 10 13 0 -2
BITMAP
7e00
e700
0300
0300
0700
7e00
0700
0300
0300
e700
7e00
0000
0000
ENDCHAR
STARTCHAR C064
ENCODING 52
SWIDTH 963 0
DWIDTH 10 0
BBX 10 13 0 -2
BITMAP
0c00
1c00
3c00
6c00
cc00
ff00
0c00
0c00
0c00
0c00
0c00
0000
0000
ENDCHAR
STARTCHAR C065
ENCODING 53
SWIDTH 963 0
DWIDTH 10 0
BBX 10 13 0 -2
BITMAP
ff00
c000
c000
c000
c000
fe00
0700
0300
0300
e700
7e00
0000
0000
ENDCHAR
STARTCHAR C066
ENCODING 54
SWIDTH 963 0
DWIDTH 10 0
BBX 10 13 0 -2
BITMAP
7e00
e700
c000
c000
c000
fe00
c700
c300
c300
e700
7e00
0000
0000
ENDCHAR
STARTCHAR C067
ENCODING 55
SWIDTH 963 0
DWIDTH 10 0
BBX 10 13 0 -2
BITMAP
ff00
0300
0300
0300
0600
0c00
1800
3000
3000
3000
3000
0000
0000
ENDCHAR
STARTCHAR C070
ENCODING 56
SWIDTH 963 0
DWIDTH 10 0
BBX 10 13 0 -2
BITMAP
7e00
e700
c300
c300
e700
7e00
e700
c300
c300
e700
7e00
0000
0000
ENDCHAR
STARTCHAR C071
ENCODING 57
SWIDTH 963 0
DWIDTH 10 0
BBX 10 13 0 -2
BITMAP
7e00
e700
c300
c300
e700
7f00
0300
0300
0300
e700
7e00
0000
0000
ENDCHAR
STARTCHAR C072
ENCODING 58
SWIDTH 963 0
DWIDTH 10 0
BBX 10 13 0 -2
BITMAP
0000
0000
0000
0000
3800
3800
0000
0000
3800
3800
0000
0000
0000
ENDCHAR
STARTCHAR C073
ENCODING 59
SWIDTH 963 0
DWIDTH 10 0
BBX 10 13 0 -2
BITMAP
0000
0000
0000
1c00
1c00
0000
0000
1c00
1c00
1800
3000
0000
0000
ENDCHAR
STARTCHAR C074
ENCODING 60
SWIDTH 963 0
DWIDTH 10 0
BBX 10 13 0 -2
BITMAP
0600
0c00
1800
3000
6000
c000
6000
3000
1800
0c00
0600
0000
0000
ENDCHAR
STARTCHAR C075
ENCODING 61
SWIDTH 963 0
DWIDTH 10 0
BBX 10 13 0 -2
BITMAP
0000
0000
0000
0000
ff00
0000
0000
ff00
0000
0000
0000
0000
0000
ENDCHAR
STARTCHAR C076
ENCODING 62
SWIDTH 963 0
DWIDTH 10 0
BBX 10 13 0 -2
BITMAP
6000
3000
1800
0c00
0600
0300
0600
0c00
1800
3000
6000
0000
0000
ENDCHAR
STARTCHAR C077
ENCODING 63
SWIDTH 963 0
DWIDTH 10 0
BBX 10 13 0 -2
BITMAP
7e00
c300
c300
0300
0600
0c00
1800
1800
0000
0000
1800
0000
0000
ENDCHAR
STARTCHAR C100
ENCODING 64
SWIDTH 963 0
DWIDTH 10 0
BBX 10 13 0 -2
BITMAP
0000
0000
0000
7e00
8200
ba00
aa00
ba00
8e00
8000
7e00
0000
0000
ENDCHAR
STARTCHAR C101
ENCODING 65
SWIDTH 963 0
DWIDTH 10 0
BBX 10 13 0 -2
BITMAP
1800
3c00
6600
c300
c300
c300
ff00
c300
c300
c300
c300
0000
0000
ENDCHAR
STARTCHAR C102
ENCODING 66
SWIDTH 963 0
DWIDTH 10 0
BBX 10 13 0 -2
BITMAP
fe00
c700
c300
c300
c700
fe00
c700
c300
c300
c700
fe00
0000
0000
ENDCHAR
STARTCHAR C103
ENCODING 67
SWIDTH 963 0
DWIDTH 10 0
BBX 10 13 0 -2
BITMAP
7e00
e700
c000
c000
c000
c000
c000
c000
c000
e700
7e00
0000
0000
ENDCHAR
STARTCHAR C104
ENCODING 68
SWIDTH 963 0
DWIDTH 10 0
BBX 10 13 0 -2
BITMAP
fc00
ce00
c700
c300
c300
c300
c300
c300
c700
ce00
fc00
0000
0000
ENDCHAR
STARTCHAR C105
ENCODING 69
SWIDTH 963 0
DWIDTH 10 0
BBX 10 13 0 -2
BITMAP
ff00
c000
c000
c000
c000
fc00
c000
c000
c000
c000
ff00
0000
0000
ENDCHAR
STARTCHAR C106
ENCODING 70
SWIDTH 963 0
DWIDTH 10 0
BBX 10 13 0 -2
BITMAP
ff00
c000
c000
c000
fc00
c000
c000
c000
c000
c000
c000
0000
0000
ENDCHAR
STARTCHAR C107
ENCODING 71
SWIDTH 963 0
DWIDTH 10 0
BBX 10 13 0 -2
BITMAP
7e00
e700
c000
c000
c000
c000
cf00
c300
c300
e700
7e00
0000
0000
ENDCHAR
STARTCHAR C110
ENCODING 72
SWIDTH 963 0
DWIDTH 10 0
BBX 10 13 0 -2
BITMAP
c300
c300
c300
c300
c300
ff00
c300
c300
c300
c300
c300
0000
0000
ENDCHAR
STARTCHAR C111
ENCODING 73
SWIDTH 963 0
DWIDTH 10 0
BBX 10 13 0 -2
BITMAP
7e00
1800
1800
1800
1800
1800
1800
1800
1800
1800
7e00
0000
0000
ENDCHAR
STARTCHAR C112
ENCODING 74
SWIDTH 963 0
DWIDTH 10 0
BBX 10 13 0 -2
BITMAP
0600
0600
0600
0600
0600
0600
0600
0600
c600
ee00
7c00
0000
0000
ENDCHAR
STARTCHAR C113
ENCODING 75
SWIDTH 963 0
DWIDTH 10 0
BBX 10 13 0 -2
BITMAP
c300
c600
cc00
d800
f000
e000
f000
d800
cc00
c600
c300
0000
0000
ENDCHAR
STARTCHAR C114
ENCODING 76
SWIDTH 963 0
DWIDTH 10 0
BBX 10 13 0 -2
BITMAP
c000
c000
c000
c000
c000
c000
c000
c000
c000
c000
ff00
0000
0000
ENDCHAR
STARTCHAR C115
ENCODING 77
SWIDTH 963 0
DWIDTH 10 0
BBX 10 13 0 -2
BITMAP
c300
e700
ff00
ff00
db00
db00
c300
c300
c300
c300
c300
0000
0000
ENDCHAR
STARTCHAR C116
ENCODING 78
SWIDTH 963 0
DWIDTH 10 0
BBX 10 13 0 -2
BITMAP
e300
e300
f300
f300
fb00
db00
df00
cf00
cf00
c700
c700
0000
0000
ENDCHAR
STARTCHAR C117
ENCODING 79
SWIDTH 963 0
DWIDTH 10 0
BBX 10 13 0 -2
BITMAP
7e00
e700
c300
c300
c300
c300
c300
c300
c300
e700
7e00
0000
0000
ENDCHAR
STARTCHAR C120
ENCODING 80
SWIDTH 963 0
DWIDTH 10 0
BBX 10 13 0 -2
BITMAP
fe00
c700
c300
c300
c700
fe00
c000
c000
c000
c000
c000
0000
0000
ENDCHAR
STARTCHAR C121
ENCODING 81
SWIDTH 963 0
DWIDTH 10 0
BBX 10 13 0 -2
BITMAP
3c00
6600
c300
c300
c300
c300
c300
db00
df00
6e00
3b00
0000
0000
ENDCHAR
STARTCHAR C122
ENCODING 82
SWIDTH 963 0
DWIDTH 10 0
BBX 10 13 0 -2
BITMAP
fe00
c700
c300
c300
c700
fe00
f000
d800
cc00
c600
c300
0000
0000
ENDCHAR
STARTCHAR C123
ENCODING 83
SWIDTH 963 0
DWIDTH 10 0
BBX 10 13 0 -2
BITMAP
7e00
e700
c000
c000
e000
7e00
0700
0300
0300
e700
7e00
0000
0000
ENDCHAR
STARTCHAR C124
ENCODING 84
SWIDTH 963 0
DWIDTH 10 0
BBX 10 13 0 -2
BITMAP
ff00
1800
1800
1800
1800
1800
1800
1800
1800
1800
1800
0000
0000
ENDCHAR
STARTCHAR C125
ENCODING 85
SWIDTH 963 0
DWIDTH 10 0
BBX 10 13 0 -2
BITMAP
c300
c300
c300
c300
c300
c300
c300
c300
c300
e700
7e00
0000
0000
ENDCHAR
STARTCHAR C126
ENCODING 86
SWIDTH 963 0
DWIDTH 10 0
BBX 10 13 0 -2
BITMAP
c300
c300
c300
c300
c300
c300
6600
6600
3c00
3c00
1800
0000
0000
ENDCHAR
STARTCHAR C127
ENCODING 87
SWIDTH 963 0
DWIDTH 10 0
BBX 10 13 0 -2
BITMAP
c300
c300
c300
c300
c300
db00
db00
ff00
ff00
e700
c300
0000
0000
ENDCHAR
STARTCHAR C130
ENCODING 88
SWIDTH 963 0
DWIDTH 10 0
BBX 10 13 0 -2
BITMAP
c300
6600
6600
3c00
3c00
1800
3c00
3c00
6600
6600
c300
0000
0000
ENDCHAR
STARTCHAR C131
ENCODING 89
SWIDTH 963 0
DWIDTH 10 0
BBX 10 13 0 -2
BITMAP
c300
6600
6600
3c00
3c00
1800
1800
1800
1800
1800
1800
0000
0000
ENDCHAR
STARTCHAR C132
ENCODING 90
SWIDTH 963 0
DWIDTH 10 0
BBX 10 13 0 -2
BITMAP
ff00
0300
0300
0600
0c00
7e00
3000
6000
c000
c000
ff00
0000
0000
ENDCHAR
STARTCHAR C133
ENCODING 91
SWIDTH 963 0
DWIDTH 10 0
BBX 10 13 0 -2
BITMAP
3c00
3000
3000
3000
3000
3000
3000
3000
3000
3000
3c00
0000
0000
ENDCHAR
STARTCHAR C134
ENCODING 92
SWIDTH 963 0
DWIDTH 10 0
BBX 10 13 0 -2
BITMAP
6000
6000
3000
3000
1800
1800
0c00
0c00
0600
0600
0300
0300
0000
ENDCHAR
STARTCHAR C135
ENCODING 93
SWIDTH 963 0
DWIDTH 10 0
BBX 10 13 0 -2
BITMAP
3c00
0c00
0c00
0c00
0c00
0c00
0c00
0c00
0c00
0c00
3c00
0000
0000
ENDCHAR
STARTCHAR C136
ENCODING 94
SWIDTH 963 0
DWIDTH 10 0
BBX 10 13 0 -2
BITMAP
1800
3c00
6600
c300
0000
0000
0000
0000
0000
0000
0000
0000
0000
ENDCHAR
STARTCHAR C137
ENCODING 95
SWIDTH 963 0
DWIDTH 10 0
BBX 10 13 0 -2
BITMAP
0000
0000
0000
0000
0000
0000
0000
0000
0000
0000
0000
0000
ffc0
ENDCHAR
STARTCHAR C140
ENCODING 96
SWIDTH 963 0
DWIDTH 10 0
BBX 10 13 0 -2
BITMAP
1c00
1c00
1800
1800
0000
0000
0000
0000
0000
0000
0000
0000
0000
ENDCHAR
STARTCHAR C141
ENCODING 97
SWIDTH 963 0
DWIDTH 10 0
BBX 10 13 0 -2
BITMAP
0000
0000
0000
0000
7e00
c300
0300
7f00
c300
c300
7d80
0000
0000
ENDCHAR
STARTCHAR C142
ENCODING 98
SWIDTH 963 0
DWIDTH 10 0
BBX 10 13 0 -2
BITMAP
c000
c000
c000
c000
c000
fe00
c300
c300
c300
c300
fe00
0000
0000
ENDCHAR
STARTCHAR C143
ENCODING 99
SWIDTH 963 0
DWIDTH 10 0
BBX 10 13 0 -2
BITMAP
0000
0000
0000
0000
7e00
c300
c000
c000
c000
c300
7e00
0000
0000
ENDCHAR
STARTCHAR C144
ENCODING 100
SWIDTH 963 0
DWIDTH 10 0
BBX 10 13 0 -2
BITMAP
0300
0300
0300
0300
0300
7f00
c300
c300
c300
c300
7f00
0000
0000
ENDCHAR
STARTCHAR C145
ENCODING 101
SWIDTH 963 0
DWIDTH 10 0
BBX 10 13 0 -2
BITMAP
0000
0000
0000
0000
7e00
c300
c300
fe00
c000
c000
7f00
0000
0000
ENDCHAR
STARTCHAR C146
ENCODING 102
SWIDTH 963 0
DWIDTH 10 0
BBX 10 13 0 -2
BITMAP
1e00
3300
3000
3000
3000
fc00
3000
3000
3000
3000
3000
0000
0000
ENDCHAR
STARTCHAR C147
ENCODING 103
SWIDTH 963 0
DWIDTH 10 0
BBX 10 13 0 -2
BITMAP
0000
0000
0000
0000
7e00
c300
c300
c300
7f00
0300
0300
c300
7e00
ENDCHAR
STARTCHAR C150
ENCODING 104
SWIDTH 963 0
DWIDTH 10 0
BBX 10 13 0 -2
BITMAP
c000
c000
c000
c000
fe00
c300
c300
c300
c300
c300
c300
0000
0000
ENDCHAR
STARTCHAR C151
ENCODING 105
SWIDTH 963 0
DWIDTH 10 0
BBX 10 13 0 -2
BITMAP
0000
1800
0000
0000
1800
1800
1800
1800
1800
1800
1800
0000
0000
ENDCHAR
STARTCHAR C152
ENCODING 106
SWIDTH 963 0
DWIDTH 10 0
BBX 10 13 0 -2
BITMAP
0000
0c00
0000
0000
0c00
0c00
0c00
0c00
0c00
0c00
0c00
6c00
3800
ENDCHAR
STARTCHAR C153
ENCODING 107
SWIDTH 963 0
DWIDTH 10 0
BBX 10 13 0 -2
BITMAP
c000
c000
c000
c000
c600
cc00
d800
f000
f800
cc00
c600
0000
0000
ENDCHAR
STARTCHAR C154
ENCODING 108
SWIDTH 963 0
DWIDTH 10 0
BBX 10 13 0 -2
BITMAP
7800
1800
1800
1800
1800
1800
1800
1800
1800
1800
7e00
0000
0000
ENDCHAR
STARTCHAR C155
ENCODING 109
SWIDTH 963 0
DWIDTH 10 0
BBX 10 13 0 -2
BITMAP
0000
0000
0000
0000
fe00
db00
db00
db00
db00
db00
db00
0000
0000
ENDCHAR
STARTCHAR C156
ENCODING 110
SWIDTH 963 0
DWIDTH 10 0
BBX 10 13 0 -2
BITMAP
0000
0000
0000
0000
fc00
c600
c600
c600
c600
c600
c600
0000
0000
ENDCHAR
STARTCHAR C157
ENCODING 111
SWIDTH 963 0
DWIDTH 10 0
BBX 10 13 0 -2
BITMAP
0000
0000
0000
0000
7c00
c600
c600
c600
c600
c600
7c00
0000
0000
ENDCHAR
STARTCHAR C160
ENCODING 112
SWIDTH 963 0
DWIDTH 10 0
BBX 10 13 0 -2
BITMAP
0000
0000
0000
0000
fe00
c300
c300
c300
c300
fe00
c000
c000
c000
ENDCHAR
STARTCHAR C161
ENCODING 113
SWIDTH 963 0
DWIDTH 10 0
BBX 10 13 0 -2
BITMAP
0000
0000
0000
0000
7f00
c300
c300
c300
c300
7f00
0300
0300
0300
ENDCHAR
STARTCHAR C162
ENCODING 114
SWIDTH 963 0
DWIDTH 10 0
BBX 10 13 0 -2
BITMAP
0000
0000
0000
0000
fe00
e300
c000
c000
c000
c000
c000
0000
0000
ENDCHAR
STARTCHAR C163
ENCODING 115
SWIDTH 963 0
DWIDTH 10 0
BBX 10 13 0 -2
BITMAP
0000
0000
0000
0000
7f00
c000
c000
7e00
0300
0300
fe00
0000
0000
ENDCHAR
STARTCHAR C164
ENCODING 116
SWIDTH 963 0
DWIDTH 10 0
BBX 10 13 0 -2
BITMAP
0000
3000
3000
3000
fc00
3000
3000
3000
3000
3600
1c00
0000
0000
ENDCHAR
STARTCHAR C165
ENCODING 117
SWIDTH 963 0
DWIDTH 10 0
BBX 10 13 0 -2
BITMAP
0000
0000
0000
0000
c600
c600
c600
c600
c600
c600
7e00
0000
0000
ENDCHAR
STARTCHAR C166
ENCODING 118
SWIDTH 963 0
DWIDTH 10 0
BBX 10 13 0 -2
BITMAP
0000
0000
0000
0000
c300
c300
6600
6600
3c00
3c00
1800
0000
0000
ENDCHAR
STARTCHAR C167
ENCODING 119
SWIDTH 963 0
DWIDTH 10 0
BBX 10 13 0 -2
BITMAP
0000
0000
0000
0000
c300
c300
c300
db00
ff00
e700
c300
0000
0000
ENDCHAR
STARTCHAR C170
ENCODING 120
SWIDTH 963 0
DWIDTH 10 0
BBX 10 13 0 -2
BITMAP
0000
0000
0000
0000
c300
6600
3c00
1800
3c00
6600
c300
0000
0000
ENDCHAR
STARTCHAR C171
ENCODING 121
SWIDTH 963 0
DWIDTH 10 0
BBX 10 13 0 -2
BITMAP
0000
0000
0000
0000
c300
6600
6600
3c00
1800
3000
6000
6000
c000
ENDCHAR
STARTCHAR C172
ENCODING 122
SWIDTH 963 0
DWIDTH 10 0
BBX 10 13 0 -2
BITMAP
0000
0000
0000
0000
ff00
0600
0c00
1800
3000
6000
ff00
0000
0000
ENDCHAR
STARTCHAR C173
ENCODING 123
SWIDTH 963 0
DWIDTH 10 0
BBX 10 13 0 -2
BITMAP
0f00
1800
1800
1800
1800
3800
f000
3800
1800
1800
1800
1800
0f00
ENDCHAR
STARTCHAR C174
ENCODING 124
SWIDTH 963 0
DWIDTH 10 0
BBX 10 13 0 -2
BITMAP
1800
1800
1800
1800
1800
1800
1800
1800
1800
1800
1800
1800
1800
ENDCHAR
STARTCHAR C175
ENCODING 125
SWIDTH 963 0
DWIDTH 10 0
BBX 10 13 0 -2
BITMAP
f000
1800
1800
1800
1800
1c00
0f00
1c00
1800
1800
1800
1800
f000
ENDCHAR
STARTCHAR C176
ENCODING 126
SWIDTH 963 0
DWIDTH 10 0
BBX 10 13 0 -2
BITMAP
0000
0000
0000
0000
7b00
de00
0000
0000
0000
0000
0000
0000
0000
ENDCHAR
ENDFONT
